<svg width="35" height="35" viewBox="0 0 35 35" fill="none" xmlns="http://www.w3.org/2000/svg">
  <g clip-path="url(#clip0_6732_56)">
    <path d="M13.2283 17.5C13.2283 18.5438 12.8129 19.5435 12.0752 20.2809L6.71443 25.6407C6.6244 25.7307 6.53279 25.816 6.43486 25.895C6.20109 26.0892 5.94679 26.2518 5.68144 26.3829C5.13178 26.6561 4.53157 26.7919 3.93294 26.7919C2.9268 26.7919 1.91908 26.4082 1.15145 25.6391C-0.383817 24.1042 -0.383817 21.6138 1.15145 20.0772L3.72918 17.5L1.15145 14.9212C-0.383817 13.3862 -0.383817 10.8958 1.15145 9.35928C2.37556 8.13541 4.21093 7.8859 5.68144 8.61706C5.94995 8.74972 6.20583 8.91395 6.44276 9.10977C6.53595 9.18873 6.62756 9.27085 6.71443 9.3577L6.93082 9.57405L12.0752 14.7175C12.8144 15.4565 13.2283 16.4577 13.2283 17.5Z" fill="#27272A" />
    <path d="M13.2283 17.5C13.2283 18.5438 12.8129 19.5435 12.0752 20.2809L6.71443 25.6407C6.6244 25.7307 6.53279 25.816 6.43486 25.895C6.20109 26.0892 5.9468 26.2518 5.68144 26.3829C5.3071 26.1982 4.95803 25.9502 4.64687 25.6391C3.11161 24.1042 3.11161 21.6138 4.64687 20.0772L7.22461 17.5L4.64845 14.9212C3.11319 13.3862 3.11319 10.8958 4.64845 9.35928C4.95961 9.04818 5.30868 8.80183 5.68144 8.61707C5.94995 8.74972 6.20583 8.91395 6.44276 9.10977C6.53595 9.18873 6.62756 9.27085 6.71443 9.3577L6.93082 9.57405L12.0752 14.7175C12.8144 15.4565 13.2283 16.4577 13.2283 17.5Z" fill="#27272A" />
    <path d="M35 17.4999C35 26.6134 27.5843 34.0277 18.469 34.0277H10.5795C8.50718 34.0277 6.80765 32.4248 6.65759 30.3893C6.64812 30.2929 6.64496 30.195 6.64496 30.094C6.64496 27.9226 8.40609 26.1602 10.5795 26.1602H18.4706C23.247 26.1602 27.1341 22.2754 27.1341 17.4984C27.1341 12.7229 23.247 8.83652 18.4706 8.83652H10.5795C8.40767 8.83652 6.64496 7.07573 6.64496 4.90276C6.64496 4.80328 6.64812 4.70379 6.65759 4.60746C6.80765 2.57504 8.5056 0.972168 10.5795 0.972168H18.4706C27.5859 0.972168 35 8.38645 35 17.4999Z" fill="#27272A" />
    <path d="M6.93081 9.57732C6.75233 9.44151 6.58806 9.28359 6.44275 9.11304C6.53594 9.192 6.62755 9.27411 6.71442 9.36097L6.93081 9.57732Z" fill="#27272A" />
    <path d="M6.71445 25.6408C6.62441 25.7308 6.5328 25.816 6.43488 25.895C6.58493 25.7166 6.75551 25.5555 6.93873 25.4165L6.71445 25.6408Z" fill="#27272A" />
    <path d="M29.347 17.5C29.347 25.1165 23.1507 31.31 15.5343 31.31H8.93837C8.0507 31.31 7.24832 30.9594 6.65601 30.3894C6.64653 30.293 6.64337 30.1951 6.64337 30.0941C6.64337 27.9227 8.40451 26.1603 10.5779 26.1603H18.469C23.2454 26.1603 27.1326 22.2755 27.1326 17.4985C27.1326 12.723 23.2454 8.83662 18.469 8.83662H10.5795C8.40767 8.83662 6.64495 7.07582 6.64495 4.90286C6.64495 4.80337 6.64811 4.70389 6.65759 4.60756C7.2499 4.03747 8.05228 3.68689 8.93995 3.68689H15.5343C23.1507 3.69005 29.347 9.88362 29.347 17.5Z" fill="#27272A" />
  </g>
  <defs>
    <clipPath id="clip0_6732_56">
      <rect width="35" height="33.0555" fill="white" transform="translate(0 0.972168)" />
    </clipPath>
  </defs>
</svg>